<svg width="321" height="73" viewBox="0 0 321 73" fill="none" xmlns="http://www.w3.org/2000/svg">
<path d="M317.041 57.5324C318.204 57.5324 319.155 57.9077 319.893 58.6584C320.631 59.3965 321 60.4974 321 61.9611V67.9284H320.175V62.0173C320.175 60.8039 319.881 59.8781 319.293 59.2401C318.717 58.5895 317.923 58.2643 316.909 58.2643C315.858 58.2643 315.014 58.6271 314.376 59.3527C313.738 60.0783 313.419 61.1291 313.419 62.5052V67.9284H312.593V62.0173C312.593 60.8039 312.299 59.8781 311.711 59.2401C311.136 58.5895 310.341 58.2643 309.328 58.2643C308.277 58.2643 307.433 58.6271 306.795 59.3527C306.157 60.0783 305.838 61.1291 305.838 62.5052V67.9284H304.993V57.7389H305.838V59.9532C306.126 59.1525 306.588 58.552 307.226 58.1517C307.877 57.7389 308.621 57.5324 309.459 57.5324C310.385 57.5324 311.18 57.7764 311.843 58.2643C312.518 58.7397 312.981 59.4465 313.231 60.3848C313.469 59.4465 313.932 58.7397 314.62 58.2643C315.308 57.7764 316.115 57.5324 317.041 57.5324Z" fill="white"/>
<path d="M300.377 62.1487C300.377 62.5991 300.364 62.9369 300.339 63.162H291.538C291.563 64.0753 291.764 64.8447 292.139 65.4702C292.514 66.0957 293.008 66.5648 293.621 66.8776C294.234 67.1903 294.904 67.3467 295.629 67.3467C296.63 67.3467 297.468 67.1028 298.144 66.6149C298.819 66.1145 299.245 65.4389 299.42 64.5882H300.302C300.102 65.6266 299.589 66.471 298.763 67.1215C297.937 67.7596 296.893 68.0786 295.629 68.0786C294.678 68.0786 293.828 67.8659 293.077 67.4405C292.326 67.0152 291.739 66.4085 291.313 65.6203C290.888 64.8197 290.675 63.8876 290.675 62.8243C290.675 61.7609 290.882 60.8351 291.294 60.047C291.72 59.2589 292.308 58.6584 293.058 58.2455C293.809 57.8202 294.666 57.6075 295.629 57.6075C296.605 57.6075 297.449 57.8202 298.163 58.2455C298.888 58.6584 299.439 59.2151 299.814 59.9156C300.189 60.6037 300.377 61.3481 300.377 62.1487ZM299.532 62.4677C299.57 61.567 299.407 60.8039 299.045 60.1784C298.694 59.5528 298.213 59.09 297.6 58.7897C296.987 58.477 296.324 58.3206 295.61 58.3206C294.897 58.3206 294.234 58.477 293.621 58.7897C293.021 59.09 292.527 59.5528 292.139 60.1784C291.764 60.8039 291.563 61.567 291.538 62.4677H299.532Z" fill="white"/>
<path d="M283.888 58.4707V65.2075C283.888 65.9581 284.026 66.4772 284.301 66.765C284.576 67.0402 285.064 67.1778 285.765 67.1778H286.91V67.9284H285.634C284.745 67.9284 284.089 67.722 283.663 67.3092C283.25 66.8838 283.044 66.1832 283.044 65.2075V58.4707H281.505V57.7389H283.044V55.1492H283.888V57.7389H286.91V58.4707H283.888Z" fill="white"/>
<path d="M274.636 68.0786C273.497 68.0786 272.565 67.8284 271.84 67.328C271.127 66.8275 270.726 66.1145 270.639 65.1887H271.502C271.565 65.8518 271.865 66.3772 272.403 66.765C272.953 67.1528 273.698 67.3467 274.636 67.3467C275.411 67.3467 276.024 67.1528 276.475 66.765C276.938 66.3647 277.169 65.8768 277.169 65.3013C277.169 64.901 277.044 64.5757 276.794 64.3255C276.556 64.0628 276.256 63.8626 275.893 63.725C275.53 63.5874 275.036 63.4373 274.411 63.2746C273.66 63.0745 273.053 62.8806 272.59 62.6929C272.127 62.4928 271.733 62.1988 271.408 61.8109C271.083 61.4231 270.92 60.904 270.92 60.2534C270.92 59.778 271.064 59.3402 271.352 58.9398C271.64 58.527 272.04 58.2017 272.553 57.964C273.066 57.7264 273.647 57.6075 274.298 57.6075C275.361 57.6075 276.218 57.8765 276.869 58.4144C277.532 58.9398 277.888 59.6717 277.938 60.61H277.094C277.056 59.9344 276.794 59.384 276.306 58.9586C275.818 58.5333 275.142 58.3206 274.279 58.3206C273.554 58.3206 272.953 58.5082 272.478 58.8835C272.002 59.2589 271.765 59.7155 271.765 60.2534C271.765 60.7288 271.896 61.1166 272.159 61.4169C272.434 61.7046 272.765 61.9298 273.153 62.0924C273.554 62.2425 274.079 62.4052 274.73 62.5803C275.443 62.768 276.012 62.9556 276.437 63.1433C276.875 63.3184 277.244 63.5811 277.544 63.9314C277.845 64.2692 277.995 64.7258 277.995 65.3013C277.995 65.8267 277.851 66.3021 277.563 66.7275C277.275 67.1528 276.875 67.4843 276.362 67.722C275.849 67.9597 275.274 68.0786 274.636 68.0786Z" fill="white"/>
<path d="M267.29 57.7388L261.361 72.7135H260.497L262.393 67.9283L258.114 57.7388H259.034L262.862 66.9901L266.427 57.7388H267.29Z" fill="white"/>
<path d="M250.689 68.0598C249.838 68.0598 249.094 67.9096 248.456 67.6094C247.818 67.3091 247.317 66.9026 246.954 66.3896C246.604 65.8767 246.404 65.3075 246.354 64.682H247.236C247.336 65.3701 247.655 65.9831 248.193 66.521C248.743 67.0589 249.575 67.3279 250.689 67.3279C251.339 67.3279 251.902 67.2091 252.378 66.9714C252.865 66.7337 253.241 66.4084 253.503 65.9956C253.766 65.5827 253.898 65.1261 253.898 64.6257C253.898 63.9877 253.741 63.481 253.428 63.1057C253.128 62.7304 252.747 62.4489 252.284 62.2613C251.833 62.0736 251.22 61.8735 250.445 61.6608C249.594 61.4356 248.906 61.2104 248.381 60.9852C247.868 60.76 247.43 60.416 247.067 59.9531C246.717 59.4777 246.542 58.8335 246.542 58.0203C246.542 57.3948 246.704 56.8256 247.029 56.3127C247.367 55.7872 247.843 55.3744 248.456 55.0741C249.069 54.7739 249.775 54.6238 250.576 54.6238C251.74 54.6238 252.678 54.9115 253.391 55.487C254.104 56.0625 254.529 56.7693 254.667 57.6075H253.766C253.691 57.2697 253.522 56.9257 253.26 56.5754C253.009 56.2251 252.647 55.9374 252.171 55.7122C251.708 55.4745 251.152 55.3556 250.501 55.3556C249.625 55.3556 248.887 55.5996 248.287 56.0875C247.686 56.5629 247.386 57.2009 247.386 58.0015C247.386 58.6396 247.542 59.1525 247.855 59.5403C248.168 59.9156 248.549 60.2033 249 60.4035C249.463 60.5912 250.082 60.7851 250.858 60.9852C251.721 61.2229 252.403 61.4544 252.903 61.6795C253.416 61.8922 253.848 62.2363 254.198 62.7116C254.561 63.1745 254.742 63.8063 254.742 64.6069C254.742 65.1949 254.586 65.7516 254.273 66.2771C253.96 66.8025 253.497 67.2341 252.884 67.5719C252.284 67.8971 251.552 68.0598 250.689 68.0598Z" fill="white"/>
<path d="M232.206 58.4707V65.2075C232.206 65.9581 232.344 66.4772 232.619 66.765C232.894 67.0402 233.382 67.1778 234.083 67.1778H235.228V67.9284H233.952C233.063 67.9284 232.407 67.722 231.981 67.3092C231.568 66.8838 231.362 66.1832 231.362 65.2075V58.4707H229.823V57.7389H231.362V55.1492H232.206V57.7389H235.228V58.4707H232.206Z" fill="white"/>
<path d="M221.791 57.5324C223.004 57.5324 223.993 57.9077 224.756 58.6584C225.519 59.3965 225.901 60.4974 225.901 61.9611V67.9284H225.075V62.0173C225.075 60.8039 224.768 59.8781 224.155 59.2401C223.542 58.5895 222.71 58.2643 221.66 58.2643C220.559 58.2643 219.677 58.6146 219.014 59.3151C218.363 60.0157 218.038 61.0541 218.038 62.4302V67.9284H217.193V57.7389H218.038V59.8969C218.326 59.1337 218.801 58.552 219.464 58.1517C220.14 57.7389 220.915 57.5324 221.791 57.5324Z" fill="white"/>
<path d="M212.577 62.1487C212.577 62.5991 212.565 62.9369 212.54 63.162H203.739C203.764 64.0753 203.964 64.8447 204.339 65.4702C204.715 66.0957 205.209 66.5648 205.822 66.8776C206.435 67.1903 207.104 67.3467 207.83 67.3467C208.83 67.3467 209.669 67.1028 210.344 66.6149C211.02 66.1145 211.445 65.4389 211.62 64.5882H212.502C212.302 65.6266 211.789 66.471 210.963 67.1215C210.138 67.7596 209.093 68.0786 207.83 68.0786C206.879 68.0786 206.028 67.8659 205.277 67.4405C204.527 67.0152 203.939 66.4085 203.514 65.6203C203.088 64.8197 202.875 63.8876 202.875 62.8243C202.875 61.7609 203.082 60.8351 203.495 60.047C203.92 59.2589 204.508 58.6584 205.259 58.2455C206.009 57.8202 206.866 57.6075 207.83 57.6075C208.805 57.6075 209.65 57.8202 210.363 58.2455C211.088 58.6584 211.639 59.2151 212.014 59.9156C212.39 60.6037 212.577 61.3481 212.577 62.1487ZM211.733 62.4677C211.77 61.567 211.608 60.8039 211.245 60.1784C210.895 59.5528 210.413 59.09 209.8 58.7897C209.187 58.477 208.524 58.3206 207.811 58.3206C207.098 58.3206 206.435 58.477 205.822 58.7897C205.221 59.09 204.727 59.5528 204.339 60.1784C203.964 60.8039 203.764 61.567 203.739 62.4677H211.733Z" fill="white"/>
<path d="M194.38 57.5324C195.544 57.5324 196.495 57.9077 197.233 58.6584C197.971 59.3965 198.34 60.4974 198.34 61.9611V67.9284H197.514V62.0173C197.514 60.8039 197.22 59.8781 196.632 59.2401C196.057 58.5895 195.262 58.2643 194.249 58.2643C193.198 58.2643 192.354 58.6271 191.716 59.3527C191.078 60.0783 190.759 61.1291 190.759 62.5052V67.9284H189.933V62.0173C189.933 60.8039 189.639 59.8781 189.051 59.2401C188.476 58.5895 187.681 58.2643 186.668 58.2643C185.617 58.2643 184.773 58.6271 184.134 59.3527C183.496 60.0783 183.177 61.1291 183.177 62.5052V67.9284H182.333V57.7389H183.177V59.9532C183.465 59.1525 183.928 58.552 184.566 58.1517C185.217 57.7389 185.961 57.5324 186.799 57.5324C187.725 57.5324 188.519 57.7764 189.182 58.2643C189.858 58.7397 190.321 59.4465 190.571 60.3848C190.809 59.4465 191.272 58.7397 191.96 58.2643C192.648 57.7764 193.455 57.5324 194.38 57.5324Z" fill="white"/>
<path d="M177.717 62.1487C177.717 62.5991 177.704 62.9369 177.679 63.162H168.878C168.903 64.0753 169.104 64.8447 169.479 65.4702C169.854 66.0957 170.348 66.5648 170.961 66.8776C171.574 67.1903 172.244 67.3467 172.969 67.3467C173.97 67.3467 174.808 67.1028 175.484 66.6149C176.159 66.1145 176.585 65.4389 176.76 64.5882H177.642C177.442 65.6266 176.929 66.471 176.103 67.1215C175.277 67.7596 174.233 68.0786 172.969 68.0786C172.019 68.0786 171.168 67.8659 170.417 67.4405C169.667 67.0152 169.079 66.4085 168.653 65.6203C168.228 64.8197 168.015 63.8876 168.015 62.8243C168.015 61.7609 168.222 60.8351 168.634 60.047C169.06 59.2589 169.648 58.6584 170.398 58.2455C171.149 57.8202 172.006 57.6075 172.969 57.6075C173.945 57.6075 174.79 57.8202 175.503 58.2455C176.228 58.6584 176.779 59.2151 177.154 59.9156C177.529 60.6037 177.717 61.3481 177.717 62.1487ZM176.872 62.4677C176.91 61.567 176.747 60.8039 176.385 60.1784C176.034 59.5528 175.553 59.09 174.94 58.7897C174.327 58.477 173.664 58.3206 172.951 58.3206C172.237 58.3206 171.574 58.477 170.961 58.7897C170.361 59.09 169.867 59.5528 169.479 60.1784C169.104 60.8039 168.903 61.567 168.878 62.4677H176.872Z" fill="white"/>
<path d="M158.241 57.6075C159.317 57.6075 160.23 57.8702 160.981 58.3957C161.731 58.9086 162.257 59.5716 162.557 60.3848V57.7389H163.401V68.2475C163.401 69.1857 163.195 70.0052 162.782 70.7057C162.369 71.4188 161.813 71.963 161.112 72.3383C160.412 72.7261 159.63 72.92 158.766 72.92C157.49 72.92 156.433 72.6135 155.595 72.0005C154.757 71.3875 154.206 70.5619 153.944 69.5235H154.788C155.038 70.3367 155.507 70.981 156.196 71.4563C156.884 71.9442 157.741 72.1882 158.766 72.1882C159.479 72.1882 160.124 72.0256 160.699 71.7003C161.275 71.3875 161.725 70.9309 162.05 70.3304C162.388 69.7424 162.557 69.0481 162.557 68.2475V65.2638C162.257 66.0769 161.725 66.7525 160.962 67.2904C160.211 67.8159 159.304 68.0786 158.241 68.0786C157.29 68.0786 156.44 67.8659 155.689 67.4406C154.951 67.0027 154.369 66.3897 153.944 65.6015C153.531 64.8009 153.324 63.8751 153.324 62.8243C153.324 61.7734 153.531 60.8539 153.944 60.0658C154.369 59.2776 154.951 58.6709 155.689 58.2455C156.44 57.8202 157.29 57.6075 158.241 57.6075ZM162.557 62.8243C162.557 61.936 162.369 61.1542 161.994 60.4786C161.631 59.7905 161.131 59.2651 160.493 58.9023C159.855 58.527 159.142 58.3394 158.354 58.3394C157.528 58.3394 156.802 58.5208 156.177 58.8835C155.551 59.2338 155.063 59.7468 154.713 60.4223C154.363 61.0979 154.188 61.8985 154.188 62.8243C154.188 63.75 154.363 64.5507 154.713 65.2262C155.063 65.9018 155.551 66.421 156.177 66.7838C156.815 67.1466 157.54 67.328 158.354 67.328C159.142 67.328 159.855 67.1466 160.493 66.7838C161.143 66.4085 161.65 65.883 162.013 65.2075C162.376 64.5194 162.557 63.725 162.557 62.8243Z" fill="white"/>
<path d="M138.634 62.8243C138.634 61.7734 138.841 60.8539 139.253 60.0658C139.679 59.2776 140.261 58.6709 140.999 58.2455C141.749 57.8202 142.6 57.6075 143.551 57.6075C144.627 57.6075 145.54 57.8702 146.29 58.3957C147.041 58.9211 147.567 59.5904 147.867 60.4035V57.7389H148.711V67.9284H147.867V65.245C147.567 66.0707 147.035 66.7525 146.272 67.2904C145.521 67.8159 144.614 68.0786 143.551 68.0786C142.6 68.0786 141.749 67.8659 140.999 67.4405C140.261 67.0027 139.679 66.3897 139.253 65.6015C138.841 64.8009 138.634 63.8751 138.634 62.8243ZM147.867 62.8243C147.867 61.936 147.679 61.1542 147.304 60.4786C146.941 59.7905 146.441 59.2651 145.803 58.9023C145.165 58.527 144.451 58.3394 143.663 58.3394C142.838 58.3394 142.112 58.5208 141.487 58.8835C140.861 59.2338 140.373 59.7468 140.023 60.4223C139.673 61.0979 139.497 61.8985 139.497 62.8243C139.497 63.75 139.673 64.5507 140.023 65.2262C140.373 65.9018 140.861 66.421 141.487 66.7838C142.125 67.1466 142.85 67.328 143.663 67.328C144.451 67.328 145.165 67.1466 145.803 66.7838C146.453 66.4085 146.96 65.883 147.323 65.2075C147.685 64.5194 147.867 63.725 147.867 62.8243Z" fill="white"/>
<path d="M130.001 57.5324C131.215 57.5324 132.203 57.9077 132.966 58.6584C133.729 59.3965 134.111 60.4974 134.111 61.9611V67.9284H133.285V62.0173C133.285 60.8039 132.979 59.8781 132.366 59.2401C131.753 58.5895 130.921 58.2643 129.87 58.2643C128.769 58.2643 127.887 58.6146 127.224 59.3151C126.573 60.0157 126.248 61.0541 126.248 62.4302V67.9284H125.404V57.7389H126.248V59.8969C126.536 59.1337 127.011 58.552 127.674 58.1517C128.35 57.7389 129.125 57.5324 130.001 57.5324Z" fill="white"/>
<path d="M110.188 62.8243C110.188 61.7734 110.394 60.8539 110.807 60.0658C111.233 59.2776 111.814 58.6709 112.552 58.2455C113.303 57.8202 114.154 57.6075 115.105 57.6075C116.18 57.6075 117.094 57.8702 117.844 58.3957C118.595 58.9211 119.12 59.5904 119.421 60.4035V57.7389H120.265V67.9284H119.421V65.245C119.12 66.0707 118.589 66.7525 117.826 67.2904C117.075 67.8159 116.168 68.0786 115.105 68.0786C114.154 68.0786 113.303 67.8659 112.552 67.4405C111.814 67.0027 111.233 66.3897 110.807 65.6015C110.394 64.8009 110.188 63.8751 110.188 62.8243ZM119.421 62.8243C119.421 61.936 119.233 61.1542 118.858 60.4786C118.495 59.7905 117.994 59.2651 117.356 58.9023C116.718 58.527 116.005 58.3394 115.217 58.3394C114.391 58.3394 113.666 58.5208 113.04 58.8835C112.415 59.2338 111.927 59.7468 111.577 60.4223C111.226 61.0979 111.051 61.8985 111.051 62.8243C111.051 63.75 111.226 64.5507 111.577 65.2262C111.927 65.9018 112.415 66.421 113.04 66.7838C113.678 67.1466 114.404 67.328 115.217 67.328C116.005 67.328 116.718 67.1466 117.356 66.7838C118.007 66.4085 118.514 65.883 118.876 65.2075C119.239 64.5194 119.421 63.725 119.421 62.8243Z" fill="white"/>
<path d="M105.547 55.0366V67.9284H104.702V56.8005L99.7482 67.9284H99.0727L94.0999 56.8005V67.9284H93.2554V55.0366H94.1562L99.4105 66.8212L104.665 55.0366H105.547Z" fill="white"/>
<path d="M80.7359 54.0421V67.9284H79.8914V54.0421H80.7359Z" fill="white"/>
<path d="M70.2169 68.0786C69.2661 68.0786 68.4091 67.8659 67.646 67.4405C66.8829 67.0152 66.2824 66.4085 65.8446 65.6203C65.4192 64.8197 65.2065 63.8876 65.2065 62.8243C65.2065 61.7734 65.4255 60.8539 65.8633 60.0658C66.3012 59.2651 66.9017 58.6584 67.6648 58.2455C68.4404 57.8202 69.3036 57.6075 70.2544 57.6075C71.2052 57.6075 72.0621 57.8202 72.8253 58.2455C73.5884 58.6584 74.1826 59.2589 74.608 60.047C75.0458 60.8351 75.2648 61.7609 75.2648 62.8243C75.2648 63.8876 75.0458 64.8197 74.608 65.6203C74.1701 66.4085 73.5634 67.0152 72.7877 67.4405C72.0246 67.8659 71.1677 68.0786 70.2169 68.0786ZM70.2169 67.328C70.955 67.328 71.643 67.1653 72.2811 66.8401C72.9316 66.5023 73.4508 65.9956 73.8386 65.3201C74.2264 64.6445 74.4203 63.8126 74.4203 62.8243C74.4203 61.8485 74.2264 61.0228 73.8386 60.3472C73.4508 59.6717 72.9379 59.1713 72.2998 58.846C71.6618 58.5082 70.9737 58.3394 70.2356 58.3394C69.4975 58.3394 68.8095 58.5082 68.1715 58.846C67.5459 59.1713 67.0393 59.6717 66.6515 60.3472C66.2636 61.0228 66.0697 61.8485 66.0697 62.8243C66.0697 63.8126 66.2574 64.6445 66.6327 65.3201C67.0205 65.9956 67.5272 66.5023 68.1527 66.8401C68.7907 67.1653 69.4788 67.328 70.2169 67.328Z" fill="white"/>
<path d="M56.0578 68.0786C55.1071 68.0786 54.2501 67.8659 53.487 67.4405C52.7239 67.0152 52.1234 66.4085 51.6855 65.6203C51.2602 64.8197 51.0475 63.8876 51.0475 62.8243C51.0475 61.7734 51.2664 60.8539 51.7043 60.0658C52.1421 59.2651 52.7426 58.6584 53.5057 58.2455C54.2814 57.8202 55.1446 57.6075 56.0954 57.6075C57.0461 57.6075 57.9031 57.8202 58.6662 58.2455C59.4293 58.6584 60.0236 59.2589 60.4489 60.047C60.8868 60.8351 61.1057 61.7609 61.1057 62.8243C61.1057 63.8876 60.8868 64.8197 60.4489 65.6203C60.0111 66.4085 59.4043 67.0152 58.6287 67.4405C57.8656 67.8659 57.0086 68.0786 56.0578 68.0786ZM56.0578 67.328C56.7959 67.328 57.484 67.1653 58.122 66.8401C58.7726 66.5023 59.2917 65.9956 59.6796 65.3201C60.0674 64.6445 60.2613 63.8126 60.2613 62.8243C60.2613 61.8485 60.0674 61.0228 59.6796 60.3472C59.2917 59.6717 58.7788 59.1713 58.1408 58.846C57.5028 58.5082 56.8147 58.3394 56.0766 58.3394C55.3385 58.3394 54.6504 58.5082 54.0124 58.846C53.3869 59.1713 52.8802 59.6717 52.4924 60.3472C52.1046 61.0228 51.9107 61.8485 51.9107 62.8243C51.9107 63.8126 52.0983 64.6445 52.4737 65.3201C52.8615 65.9956 53.3681 66.5023 53.9936 66.8401C54.6317 67.1653 55.3197 67.328 56.0578 67.328Z" fill="white"/>
<path d="M42.4333 57.5324C43.6343 57.5324 44.6163 57.9077 45.3795 58.6583C46.1426 59.3965 46.5242 60.4974 46.5242 61.9611V67.9284H45.6985V62.0173C45.6985 60.8039 45.392 59.8781 44.779 59.2401C44.166 58.5895 43.334 58.2643 42.2832 58.2643C41.1823 58.2643 40.3003 58.6146 39.6373 59.3151C38.9867 60.0157 38.6615 61.0541 38.6615 62.4302V67.9284H37.817V54.0421H38.6615V59.8969C38.9492 59.1337 39.4309 58.552 40.1064 58.1517C40.782 57.7388 41.5576 57.5324 42.4333 57.5324Z" fill="white"/>
<path d="M23.5725 62.8243C23.5725 61.7609 23.779 60.8351 24.1918 60.047C24.6172 59.2589 25.1989 58.6584 25.937 58.2455C26.6876 57.8202 27.5446 57.6075 28.5078 57.6075C29.7839 57.6075 30.8285 57.9265 31.6417 58.5645C32.4673 59.2026 32.9803 60.0595 33.1804 61.1354H32.2984C32.1358 60.2597 31.7105 59.5716 31.0224 59.0712C30.3468 58.5708 29.5087 58.3206 28.5078 58.3206C27.7572 58.3206 27.0754 58.4895 26.4624 58.8273C25.8494 59.1525 25.3553 59.6592 24.98 60.3472C24.6172 61.0228 24.4358 61.8485 24.4358 62.8243C24.4358 63.8126 24.6172 64.6445 24.98 65.3201C25.3553 65.9956 25.8494 66.5023 26.4624 66.8401C27.0754 67.1778 27.7572 67.3467 28.5078 67.3467C29.5087 67.3467 30.3468 67.0965 31.0224 66.5961C31.7105 66.0957 32.1358 65.4076 32.2984 64.5319H33.1804C32.9803 65.5953 32.4673 66.4522 31.6417 67.1028C30.816 67.7533 29.7714 68.0786 28.5078 68.0786C27.5446 68.0786 26.6876 67.8659 25.937 67.4405C25.1989 67.0152 24.6172 66.4085 24.1918 65.6203C23.779 64.8197 23.5725 63.8876 23.5725 62.8243Z" fill="white"/>
<path d="M15.4525 68.0598C14.6018 68.0598 13.8575 67.9096 13.2194 67.6094C12.5814 67.3091 12.081 66.9026 11.7182 66.3896C11.3679 65.8767 11.1678 65.3075 11.1177 64.682H11.9997C12.0998 65.3701 12.4188 65.9831 12.9567 66.521C13.5072 67.0589 14.3391 67.3279 15.4525 67.3279C16.1031 67.3279 16.666 67.2091 17.1414 66.9714C17.6293 66.7337 18.0046 66.4084 18.2673 65.9956C18.53 65.5827 18.6614 65.1261 18.6614 64.6257C18.6614 63.9877 18.505 63.481 18.1923 63.1057C17.892 62.7304 17.5105 62.4489 17.0476 62.2613C16.5972 62.0736 15.9842 61.8735 15.2086 61.6608C14.3579 61.4356 13.6698 61.2104 13.1444 60.9852C12.6315 60.76 12.1936 60.416 11.8308 59.9531C11.4805 59.4777 11.3054 58.8335 11.3054 58.0203C11.3054 57.3948 11.468 56.8256 11.7933 56.3127C12.1311 55.7872 12.6064 55.3744 13.2194 55.0741C13.8324 54.7739 14.5393 54.6238 15.3399 54.6238C16.5034 54.6238 17.4416 54.9115 18.1547 55.487C18.8678 56.0625 19.2932 56.7693 19.4308 57.6075H18.53C18.455 57.2697 18.2861 56.9257 18.0234 56.5754C17.7732 56.2251 17.4104 55.9374 16.935 55.7122C16.4721 55.4745 15.9154 55.3556 15.2649 55.3556C14.3891 55.3556 13.651 55.5996 13.0506 56.0875C12.4501 56.5629 12.1498 57.2009 12.1498 58.0015C12.1498 58.6396 12.3062 59.1525 12.619 59.5403C12.9317 59.9156 13.3133 60.2033 13.7636 60.4035C14.2265 60.5912 14.8458 60.7851 15.6214 60.9852C16.4846 61.2229 17.1664 61.4544 17.6668 61.6795C18.1798 61.8922 18.6114 62.2363 18.9616 62.7116C19.3244 63.1745 19.5058 63.8063 19.5058 64.6069C19.5058 65.1949 19.3495 65.7516 19.0367 66.2771C18.7239 66.8025 18.2611 67.2341 17.6481 67.5719C17.0476 67.8971 16.3157 68.0598 15.4525 68.0598Z" fill="white"/>
<path d="M314.951 6.58017V33.2847H308.78V6.58017H314.951Z" fill="#00C300"/>
<path d="M294.969 33.5734C292.996 33.5734 291.216 33.1524 289.628 32.3103C288.064 31.4683 286.825 30.2654 285.911 28.7016C285.021 27.1378 284.576 25.3094 284.576 23.2164C284.576 21.1474 285.033 19.331 285.947 17.7672C286.861 16.1794 288.112 14.9644 289.7 14.1224C291.288 13.2803 293.068 12.8593 295.041 12.8593C297.014 12.8593 298.794 13.2803 300.382 14.1224C301.97 14.9644 303.221 16.1794 304.135 17.7672C305.049 19.331 305.506 21.1474 305.506 23.2164C305.506 25.2854 305.037 27.1138 304.099 28.7016C303.184 30.2654 301.921 31.4683 300.31 32.3103C298.722 33.1524 296.941 33.5734 294.969 33.5734ZM294.969 28.2325C296.147 28.2325 297.146 27.7994 297.964 26.9333C298.806 26.0672 299.227 24.8283 299.227 23.2164C299.227 21.6045 298.818 20.3655 298 19.4994C297.206 18.6333 296.22 18.2002 295.041 18.2002C293.838 18.2002 292.839 18.6333 292.046 19.4994C291.252 20.3414 290.855 21.5804 290.855 23.2164C290.855 24.8283 291.24 26.0672 292.009 26.9333C292.803 27.7994 293.79 28.2325 294.969 28.2325Z" fill="#00C300"/>
<path d="M271.991 33.5734C270.019 33.5734 268.238 33.1524 266.65 32.3103C265.087 31.4683 263.848 30.2654 262.933 28.7016C262.043 27.1378 261.598 25.3094 261.598 23.2164C261.598 21.1474 262.055 19.331 262.97 17.7672C263.884 16.1794 265.135 14.9644 266.723 14.1224C268.31 13.2803 270.091 12.8593 272.064 12.8593C274.036 12.8593 275.817 13.2803 277.404 14.1224C278.992 14.9644 280.243 16.1794 281.158 17.7672C282.072 19.331 282.529 21.1474 282.529 23.2164C282.529 25.2854 282.06 27.1138 281.121 28.7016C280.207 30.2654 278.944 31.4683 277.332 32.3103C275.744 33.1524 273.964 33.5734 271.991 33.5734ZM271.991 28.2325C273.17 28.2325 274.169 27.7994 274.987 26.9333C275.829 26.0672 276.25 24.8283 276.25 23.2164C276.25 21.6045 275.841 20.3655 275.023 19.4994C274.229 18.6333 273.242 18.2002 272.064 18.2002C270.861 18.2002 269.862 18.6333 269.068 19.4994C268.274 20.3414 267.877 21.5804 267.877 23.2164C267.877 24.8283 268.262 26.0672 269.032 26.9333C269.826 27.7994 270.813 28.2325 271.991 28.2325Z" fill="#00C300"/>
<path d="M250.887 12.9315C253.196 12.9315 255.049 13.7014 256.444 15.2411C257.839 16.7568 258.537 18.8498 258.537 21.5203V33.2847H252.402V22.3503C252.402 21.003 252.053 19.9565 251.356 19.2107C250.658 18.4649 249.72 18.092 248.541 18.092C247.362 18.092 246.424 18.4649 245.726 19.2107C245.028 19.9565 244.68 21.003 244.68 22.3503V33.2847H238.509V6.58017H244.68V15.8546C245.305 14.9644 246.159 14.2547 247.242 13.7254C248.324 13.1962 249.539 12.9315 250.887 12.9315Z" fill="#00C300"/>
<path d="M215.432 23.2164C215.432 21.1233 215.853 19.2949 216.695 17.7311C217.561 16.1673 218.752 14.9644 220.268 14.1224C221.807 13.2803 223.564 12.8593 225.536 12.8593C228.063 12.8593 230.168 13.5209 231.852 14.8441C233.56 16.1673 234.679 18.0318 235.208 20.4376H228.64C228.087 18.8979 227.016 18.1281 225.428 18.1281C224.297 18.1281 223.395 18.5731 222.722 19.4633C222.048 20.3294 221.711 21.5804 221.711 23.2164C221.711 24.8523 222.048 26.1154 222.722 27.0055C223.395 27.8716 224.297 28.3047 225.428 28.3047C227.016 28.3047 228.087 27.5348 228.64 25.9951H235.208C234.679 28.3528 233.56 30.2052 231.852 31.5525C230.144 32.8998 228.038 33.5734 225.536 33.5734C223.564 33.5734 221.807 33.1524 220.268 32.3103C218.752 31.4683 217.561 30.2654 216.695 28.7016C215.853 27.1378 215.432 25.3094 215.432 23.2164Z" fill="#00C300"/>
<path d="M203.623 33.5373C201.77 33.5373 200.11 33.2366 198.643 32.6352C197.175 32.0337 195.996 31.1436 195.106 29.9647C194.24 28.7859 193.783 27.3664 193.735 25.7064H200.303C200.399 26.6447 200.724 27.3664 201.277 27.8717C201.831 28.3528 202.552 28.5934 203.442 28.5934C204.357 28.5934 205.078 28.3889 205.608 27.9799C206.137 27.5469 206.402 26.9574 206.402 26.2116C206.402 25.5861 206.185 25.0689 205.752 24.6599C205.343 24.2509 204.826 23.9141 204.2 23.6495C203.599 23.3848 202.733 23.0841 201.602 22.7473C199.966 22.242 198.631 21.7368 197.596 21.2316C196.562 20.7264 195.672 19.9806 194.926 18.9942C194.18 18.0078 193.807 16.7207 193.807 15.1329C193.807 12.7752 194.661 10.9347 196.369 9.61152C198.078 8.26427 200.303 7.59064 203.046 7.59064C205.836 7.59064 208.086 8.26427 209.794 9.61152C211.502 10.9347 212.416 12.7872 212.536 15.169H205.86C205.812 14.351 205.511 13.7134 204.958 13.2563C204.405 12.7752 203.695 12.5346 202.829 12.5346C202.083 12.5346 201.482 12.7391 201.025 13.1481C200.568 13.533 200.339 14.0984 200.339 14.8442C200.339 15.6621 200.724 16.2997 201.494 16.7568C202.264 17.2139 203.467 17.7071 205.102 18.2364C206.738 18.7897 208.062 19.319 209.072 19.8242C210.107 20.3294 210.997 21.0632 211.743 22.0255C212.488 22.9879 212.861 24.2268 212.861 25.7425C212.861 27.186 212.488 28.4972 211.743 29.676C211.021 30.8549 209.962 31.7931 208.567 32.4908C207.171 33.1885 205.524 33.5373 203.623 33.5373Z" fill="#00C300"/>
<path d="M191.019 28.052V33.2847H187.88C185.642 33.2847 183.898 32.7433 182.647 31.6607C181.396 30.5541 180.771 28.7617 180.771 26.2837V18.2724H178.317V13.148H180.771V8.24016H186.942V13.148H190.983V18.2724H186.942V26.3559C186.942 26.9574 187.086 27.3904 187.375 27.6551C187.663 27.9197 188.144 28.052 188.818 28.052H191.019Z" fill="#012353"/>
<path d="M170.532 16.5042C171.253 15.3975 172.155 14.5314 173.238 13.9059C174.321 13.2563 175.524 12.9315 176.847 12.9315V19.4633H175.151C173.611 19.4633 172.456 19.8001 171.686 20.4738C170.916 21.1233 170.532 22.2781 170.532 23.9381V33.2847H164.361V13.148H170.532V16.5042Z" fill="#012353"/>
<path d="M138.641 23.1803C138.641 21.1113 139.026 19.2949 139.796 17.7311C140.59 16.1673 141.66 14.9644 143.007 14.1224C144.355 13.2803 145.858 12.8593 147.518 12.8593C148.938 12.8593 150.177 13.148 151.235 13.7254C152.318 14.3028 153.148 15.0606 153.725 15.9989V13.148H159.896V33.2847H153.725V30.4338C153.124 31.3721 152.282 32.1299 151.199 32.7073C150.141 33.2847 148.902 33.5734 147.482 33.5734C145.846 33.5734 144.355 33.1524 143.007 32.3103C141.66 31.4442 140.59 30.2293 139.796 28.6655C139.026 27.0777 138.641 25.2493 138.641 23.1803ZM153.725 23.2164C153.725 21.6766 153.292 20.4617 152.426 19.5715C151.584 18.6814 150.55 18.2363 149.323 18.2363C148.096 18.2363 147.049 18.6814 146.183 19.5715C145.341 20.4376 144.92 21.6405 144.92 23.1803C144.92 24.72 145.341 25.947 146.183 26.8612C147.049 27.7513 148.096 28.1964 149.323 28.1964C150.55 28.1964 151.584 27.7513 152.426 26.8612C153.292 25.971 153.725 24.7561 153.725 23.2164Z" fill="#012353"/>
<path d="M127.36 12.9315C129.862 12.9315 131.847 13.6894 133.314 15.205C134.806 16.7207 135.552 18.8258 135.552 21.5203V33.2847H129.417V22.3503C129.417 21.0512 129.068 20.0527 128.371 19.3551C127.697 18.6333 126.759 18.2724 125.556 18.2724C124.353 18.2724 123.403 18.6333 122.705 19.3551C122.031 20.0527 121.694 21.0512 121.694 22.3503V33.2847H115.56V22.3503C115.56 21.0512 115.211 20.0527 114.513 19.3551C113.839 18.6333 112.901 18.2724 111.698 18.2724C110.495 18.2724 109.545 18.6333 108.847 19.3551C108.174 20.0527 107.837 21.0512 107.837 22.3503V33.2847H101.666V13.148H107.837V15.6742C108.462 14.8321 109.28 14.1705 110.291 13.6894C111.301 13.1841 112.444 12.9315 113.719 12.9315C115.235 12.9315 116.582 13.2563 117.761 13.9059C118.964 14.5555 119.902 15.4817 120.576 16.6846C121.273 15.5779 122.224 14.6757 123.427 13.9781C124.629 13.2804 125.941 12.9315 127.36 12.9315Z" fill="#012353"/>
<path d="M88.6305 33.5373C86.778 33.5373 85.118 33.2366 83.6504 32.6352C82.1829 32.0337 81.004 31.1436 80.1139 29.9647C79.2478 28.7859 78.7907 27.3664 78.7426 25.7064H85.3104C85.4067 26.6447 85.7314 27.3664 86.2848 27.8717C86.8381 28.3528 87.5599 28.5934 88.45 28.5934C89.3642 28.5934 90.086 28.3889 90.6153 27.9799C91.1445 27.5469 91.4092 26.9574 91.4092 26.2116C91.4092 25.5861 91.1926 25.0689 90.7596 24.6599C90.3506 24.2509 89.8334 23.9141 89.2078 23.6495C88.6064 23.3848 87.7403 23.0841 86.6096 22.7473C84.9736 22.242 83.6384 21.7368 82.6039 21.2316C81.5694 20.7264 80.6792 19.9806 79.9334 18.9942C79.1876 18.0078 78.8147 16.7207 78.8147 15.1329C78.8147 12.7752 79.6688 10.9347 81.3769 9.61152C83.0851 8.26427 85.3104 7.59064 88.0531 7.59064C90.8438 7.59064 93.0932 8.26427 94.8014 9.61152C96.5095 10.9347 97.4237 12.7872 97.544 15.169H90.8679C90.8197 14.351 90.519 13.7134 89.9657 13.2563C89.4123 12.7752 88.7026 12.5346 87.8365 12.5346C87.0907 12.5346 86.4893 12.7391 86.0322 13.1481C85.5751 13.533 85.3465 14.0984 85.3465 14.8442C85.3465 15.6621 85.7314 16.2997 86.5013 16.7568C87.2712 17.2139 88.4741 17.7071 90.11 18.2364C91.746 18.7897 93.0692 19.319 94.0796 19.8242C95.1141 20.3294 96.0043 21.0632 96.7501 22.0255C97.4959 22.9879 97.8688 24.2268 97.8688 25.7425C97.8688 27.186 97.4959 28.4972 96.7501 29.676C96.0283 30.8549 94.9698 31.7931 93.5744 32.4908C92.179 33.1885 90.531 33.5373 88.6305 33.5373Z" fill="#012353"/>
<g clip-path="url(#clip0_5_3185)">
<path d="M39.7046 3.56221C30.8339 6.20852 22.0275 8.74575 13.2645 12.2163C14.9035 12.8412 16.4481 13.2857 17.8527 13.998C20.2336 15.2054 22.1182 13.5844 24.0913 12.9791C30.2115 11.1012 36.2462 8.95281 42.3134 6.90769C42.5941 6.81309 42.8944 6.74255 43.1425 6.59192C45.044 5.43718 47.0021 5.51991 48.9505 6.39186C51.7066 7.62524 54.6756 8.22703 57.4927 9.26814C59.85 10.1393 62.1825 11.0725 64.6136 11.7372C64.7621 11.7778 64.9645 12.0107 64.9568 12.1436C64.9395 12.4381 64.7682 12.7193 64.4353 12.7796C63.9497 12.8676 63.4778 13.1168 63.0405 13.1807C61.0696 13.4686 61.0068 14.8928 60.9965 16.3113C60.964 20.814 60.9497 25.3174 61.0058 29.8196C61.0227 31.1693 61.243 32.5005 61.1634 33.877C61.0797 35.3252 62.0728 36.4873 62.8807 37.6637C63.1523 38.0591 63.7173 38.5624 63.4065 39.0717C63.1405 39.5074 62.4872 39.2647 62.0074 39.2717C60.5171 39.2936 59.0255 39.2521 57.5357 39.289C56.5244 39.3141 56.4157 38.9196 56.881 38.1585C56.9066 38.1167 56.9197 38.0648 56.9522 38.03C59.0742 35.759 58.9276 32.975 58.8854 30.1665C58.8134 25.371 58.8502 20.5737 58.8761 15.7773C58.8811 14.8431 58.7399 14.6184 57.7112 14.976C49.6787 17.7678 41.6191 20.4836 33.57 23.2292C32.8863 23.4624 32.2003 23.497 31.5276 23.2702C29.9527 22.7393 28.3917 22.169 26.8207 21.627C26.5797 21.5438 26.2737 21.4714 26.3204 21.2015C26.3558 20.9969 26.5874 20.7842 26.7857 20.6559C27.3213 20.3095 27.9882 20.2178 28.5714 20.055C33.1886 18.7662 37.6232 16.9512 42.2039 15.562C45.0776 14.6904 47.9147 13.7016 50.7645 12.7547C51.0721 12.6525 51.5362 12.6306 51.5129 12.1886C51.4961 11.8699 51.1082 11.8022 50.8357 11.7109C49.7148 11.3355 48.589 10.9743 47.4657 10.6059C45.9798 10.1186 44.6174 10.7108 43.2823 11.1642C36.1987 13.5698 29.1204 15.9919 22.0717 18.4944C20.2552 19.1394 18.7515 19.0604 16.9022 18.2941C13.4564 16.8663 9.7927 15.9549 6.28445 14.6347C4.44754 13.9434 2.55678 13.3914 0.69346 12.7675C0.419965 12.6759 0.0515085 12.604 0.0061019 12.2865C-0.0590675 11.8307 0.412912 11.7588 0.700092 11.6567C2.97449 10.848 5.26703 10.0889 7.5428 9.28386C11.348 7.93778 15.2292 6.8245 19.0038 5.36814C23.1757 3.7585 27.4913 2.51012 31.7446 1.10546C31.791 1.09012 31.8422 1.08299 31.8913 1.08195C34.7429 1.0218 37.0194 2.72195 39.7046 3.56221Z" fill="url(#paint0_linear_5_3185)"/>
<path d="M53.5182 24.5482C53.5181 25.4781 53.4318 26.4178 53.5399 27.3353C53.6761 28.4913 52.9939 28.905 52.0866 29.203C46.5668 31.0153 40.9576 32.6067 35.564 34.7296C32.9026 35.7771 30.7434 35.1831 28.3846 34.3765C23.3193 32.6444 18.2476 30.9306 13.1787 29.2086C12.0713 28.8324 11.3058 28.3193 11.4207 26.9095C11.5674 25.1103 11.4864 23.2902 11.4461 21.4803C11.4217 20.3826 11.8531 20.0812 12.8915 20.4327C15.5327 21.3267 18.2001 22.1477 20.8265 23.0814C24.387 24.3471 27.9098 25.7134 31.5355 26.8003C32.9538 27.2255 34.19 26.6154 35.423 26.2037C40.8375 24.3958 46.2256 22.5108 51.6168 20.6359C53.3025 20.0497 53.5115 20.1685 53.5178 21.9055C53.521 22.7864 53.5183 23.6673 53.5182 24.5482Z" fill="#012353"/>
</g>
<path d="M70.5917 41.2239C70.5917 41.5 70.8156 41.7239 71.0917 41.7239C71.3679 41.7239 71.5917 41.5 71.5917 41.2239H70.5917ZM71.0917 0.0844765L70.5917 0.0844765L70.5917 41.2239H71.0917H71.5917L71.5917 0.0844765L71.0917 0.0844765Z" fill="white"/>
<defs>
<linearGradient id="paint0_linear_5_3185" x1="32.4785" y1="1.08039" x2="32.4785" y2="39.3328" gradientUnits="userSpaceOnUse">
<stop stop-color="#51D6CD"/>
<stop offset="1" stop-color="#00C300"/>
</linearGradient>
<clipPath id="clip0_5_3185">
<rect width="64.957" height="38.2525" fill="white" transform="translate(0 1.08039)"/>
</clipPath>
</defs>
</svg>
